<svg xmlns="http://www.w3.org/2000/svg" version="1.1" xmlns:xlink="http://www.w3.org/1999/xlink" width="1000" height="1000"><style>
    #light-icon {
      display: inline;
    }
    #dark-icon {
      display: none;
    }

    @media (prefers-color-scheme: dark) {
      #light-icon {
        display: none;
      }
      #dark-icon {
        display: inline;
      }
    }
  </style><g id="light-icon"><svg xmlns="http://www.w3.org/2000/svg" version="1.1" xmlns:xlink="http://www.w3.org/1999/xlink" width="1000" height="1000"><g><g transform="matrix(2,0,0,2,0,0)"><svg xmlns="http://www.w3.org/2000/svg" version="1.1" xmlns:xlink="http://www.w3.org/1999/xlink" width="500" height="500"><svg width="500" height="500" xmlns="http://www.w3.org/2000/svg">
 <defs>
  <linearGradient gradientTransform="matrix(1,0,0,1,-176.3549919128418,-95.81999969482422)" gradientUnits="userSpaceOnUse" y2="345.41" x2="426.35" y1="230.96" x1="426.35" data-name="未命名的渐变 6" id="svg_2">
   <stop stop-color="#a37c39" offset="0"></stop>
   <stop stop-opacity="0" stop-color="#a37c39" offset="1"></stop>
  </linearGradient>
 </defs>
 <g>
  <title>Layer 1</title>

  <g id="svg_3">
   <polygon fill="#a37c39" stroke-width="0px" points="259.43498611450195,366.9899597167969 249.99499893188477,381.42999267578125 240.56500625610352,367 210.69501113891602,321.30999755859375 208.77502822875977,318.3699951171875 211.03500747680664,309.1099853515625 211.96503067016602,305.30999755859375 240.56500625610352,188.47998046875 249.99499893188477,149.95999145507812 259.43498611450195,188.50997924804688 288.0349922180176,305.30999755859375 288.9650459289551,309.1099853515625 291.2249641418457,318.3699951171875 289.30498123168945,321.30999755859375 259.43498611450195,366.9899597167969 " class="cls-2"></polygon>
   <polygon fill="#a37c39" stroke-width="0px" points="225.90503311157227,151.80999755859375 135.63498306274414,321.32000732421875 156.73498916625977,321.32000732421875 225.90503311157227,151.80999755859375 " class="cls-2"></polygon>
   <polygon fill="#a37c39" stroke-width="0px" points="274.0850410461426,151.80999755859375 364.35503005981445,321.32000732421875 343.2549934387207,321.32000732421875 274.0850410461426,151.80999755859375 " class="cls-2"></polygon>
   <path fill="#121725" stroke-width="0px" d="m249.99501,36.53c-117.89,0 -213.47,95.57 -213.47,213.47s95.58,213.47 213.47,213.47s213.48,-95.57 213.48,-213.47s-95.58,-213.47 -213.48,-213.47zm136.81,350.27c-36.54,36.55 -85.13,56.67 -136.81,56.67s-100.26,-20.12 -136.8,-56.67c-36.54,-36.54 -56.67,-85.12 -56.67,-136.8s20.13,-100.26 56.67,-136.81c36.54,-36.54 85.13,-56.66 136.8,-56.66s100.27,20.12 136.81,56.66c36.54,36.55 56.67,85.13 56.67,136.81s-20.13,100.26 -56.67,136.8z" class="cls-3"></path>
   <path fill="#121725" stroke-width="0px" d="m249.99501,82.68l-178.75,238.63l139.45,0l-1.92,-2.94l2.26,-9.26l0.93,-3.8l-108.75,0l137.08,-183l0.27,-0.36l9.43,-12.59l9.44,12.6l0.26,0.36l137.08,182.99l-108.74,0l0.93,3.8l2.26,9.26l-1.92,2.94l139.45,0l-178.76,-238.63z" class="cls-3"></path>
   <g>
    <path fill="#121725" stroke-width="0px" d="m304.50501,305.31l-44.81,-182.99l-0.26,-1.09l-3.14,-12.82l-6.3,-25.73l-6.3,25.73l-3.13,12.79l-0.27,1.11l-44.8,183l-14.38,0l10.46,16l58.42,89.36l58.43,-89.36l10.46,-16l-14.38,0zm-45.07,61.68l-9.44,14.44l-9.43,-14.43l-29.87,-45.69l-1.92,-2.94l2.26,-9.26l0.93,-3.8l28.6,-116.83l9.43,-38.52l9.44,38.55l28.6,116.8l0.93,3.8l2.26,9.26l-1.92,2.94l-29.87,45.68z" class="cls-3"></path>
    <polygon stroke-width="0px" fill="none" points="291.2249641418457,318.3699951171875 289.30498123168945,321.30999755859375 259.43498611450195,366.9899597167969 259.43498611450195,188.50997924804688 288.0349922180176,305.30999755859375 288.9650459289551,309.1099853515625 291.2249641418457,318.3699951171875 " class="cls-1"></polygon>
    <polygon stroke-width="0px" fill="none" points="240.56500625610352,188.47998046875 240.56500625610352,367 210.69501113891602,321.30999755859375 208.77502822875977,318.3699951171875 211.03500747680664,309.1099853515625 211.96503067016602,305.30999755859375 240.56500625610352,188.47998046875 " class="cls-1"></polygon>
   </g>
   <rect fill="#121725" stroke-width="0px" height="273.48" width="16.67" y="108.41" x="241.66501" class="cls-3"></rect>
   <polygon fill="url(#svg_2)" stroke-width="0px" points="259.43498611450195,366.9899597167969 249.99499893188477,381.42999267578125 240.56500625610352,367 210.69501113891602,321.30999755859375 208.77502822875977,318.3699951171875 211.03500747680664,309.1099853515625 211.96503067016602,305.30999755859375 240.56500625610352,188.47998046875 249.99499893188477,149.95999145507812 259.43498611450195,188.50997924804688 288.0349922180176,305.30999755859375 288.9650459289551,309.1099853515625 291.2249641418457,318.3699951171875 289.30498123168945,321.30999755859375 259.43498611450195,366.9899597167969 " class="cls-4"></polygon>
  </g>
 </g>
</svg></svg></g></g></svg></g><g id="dark-icon"><svg xmlns="http://www.w3.org/2000/svg" version="1.1" xmlns:xlink="http://www.w3.org/1999/xlink" width="1000" height="1000"><g><g transform="matrix(2,0,0,2,0,0)"><svg xmlns="http://www.w3.org/2000/svg" version="1.1" xmlns:xlink="http://www.w3.org/1999/xlink" width="500" height="500"><svg width="500" height="500" xmlns="http://www.w3.org/2000/svg">
  <defs>
    <linearGradient id="svg_2" gradientUnits="userSpaceOnUse" gradientTransform="matrix(1,0,0,1,-176.3549919128418,-95.81999969482422)" x1="426.35" y1="230.96" x2="426.35" y2="345.41" data-name="unnamed gradient 6">
      <stop offset="0" stop-color="#A37C39"></stop>
      <stop offset="1" stop-color="#A37C39" stop-opacity="0"></stop>
    </linearGradient>
  </defs>
  <g>
    <title>Layer 1</title>
    <g id="svg_3">
      <!-- Gold polygons remain the same -->
      <polygon fill="#A37C39" stroke-width="0" points="259.43498611450195,366.9899597167969 249.99499893188477,381.42999267578125 240.56500625610352,367 210.69501113891602,321.30999755859375 208.77502822875977,318.3699951171875 211.03500747680664,309.1099853515625 211.96503067016602,305.30999755859375 240.56500625610352,188.47998046875 249.99499893188477,149.95999145507812 259.43498611450195,188.50997924804688 288.0349922180176,305.30999755859375 288.9650459289551,309.1099853515625 291.2249641418457,318.3699951171875 289.30498123168945,321.30999755859375 259.43498611450195,366.9899597167969"></polygon>
      <polygon fill="#A37C39" stroke-width="0" points="225.90503311157227,151.80999755859375 135.63498306274414,321.32000732421875 156.73498916625977,321.32000732421875 225.90503311157227,151.80999755859375"></polygon>
      <polygon fill="#A37C39" stroke-width="0" points="274.0850410461426,151.80999755859375 364.35503005981445,321.32000732421875 343.2549934387207,321.32000732421875 274.0850410461426,151.80999755859375"></polygon>
      <!-- Changed dark fills to light for dark mode -->
      <path fill="#FFFFFF" stroke-width="0" d="m249.99501,36.53c-117.89,0 -213.47,95.57 -213.47,213.47s95.58,213.47 213.47,213.47s213.48,-95.57 213.48,-213.47s-95.58,-213.47 -213.48,-213.47zm136.81,350.27c-36.54,36.55 -85.13,56.67 -136.81,56.67s-100.26,-20.12 -136.8,-56.67c-36.54,-36.54 -56.67,-85.12 -56.67,-136.8s20.13,-100.26 56.67,-136.81c36.54,-36.54 85.13,-56.66 136.8,-56.66s100.27,20.12 136.81,56.66c36.54,36.55 56.67,85.13 56.67,136.81s-20.13,100.26 -56.67,136.8z"></path>
      <path fill="#FFFFFF" stroke-width="0" d="m249.99501,82.68l-178.75,238.63l139.45,0l-1.92,-2.94l2.26,-9.26l0.93,-3.8l-108.75,0l137.08,-183l0.27,-0.36l9.43,-12.59l9.44,12.6l0.26,0.36l137.08,182.99l-108.74,0l0.93,3.8l2.26,9.26l-1.92,2.94l139.45,0l-178.76,-238.63z"></path>
      <g>
        <path fill="#FFFFFF" stroke-width="0" d="m304.50501,305.31l-44.81,-182.99l-0.26,-1.09l-3.14,-12.82l-6.3,-25.73l-6.3,25.73l-3.13,12.79l-0.27,1.11l-44.8,183l-14.38,0l10.46,16l58.42,89.36l58.43,-89.36l10.46,-16l-14.38,0zm-45.07,61.68l-9.44,14.44l-9.43,-14.43l-29.87,-45.69l-1.92,-2.94l2.26,-9.26l0.93,-3.8l28.6,-116.83l9.43,-38.52l9.44,38.55l28.6,116.8l0.93,3.8l2.26,9.26l-1.92,2.94l-29.87,45.68z"></path>
        <polygon fill="none" stroke-width="0" points="291.2249641418457,318.3699951171875 289.30498123168945,321.30999755859375 259.43498611450195,366.9899597167969 259.43498611450195,188.50997924804688 288.0349922180176,305.30999755859375 288.9650459289551,309.1099853515625 291.2249641418457,318.3699951171875"></polygon>
        <polygon fill="none" stroke-width="0" points="240.56500625610352,188.47998046875 240.56500625610352,367 210.69501113891602,321.30999755859375 208.77502822875977,318.3699951171875 211.03500747680664,309.1099853515625 211.96503067016602,305.30999755859375 240.56500625610352,188.47998046875"></polygon>
      </g>
      <rect fill="#FFFFFF" stroke-width="0" x="241.66501" y="108.41" width="16.67" height="273.48"></rect>
      <!-- Gradient overlay remains for gold shading -->
      <polygon fill="url(#svg_2)" stroke-width="0" points="259.43498611450195,366.9899597167969 249.99499893188477,381.42999267578125 240.56500625610352,367 210.69501113891602,321.30999755859375 208.77502822875977,318.3699951171875 211.03500747680664,309.1099853515625 211.96503067016602,305.30999755859375 240.56500625610352,188.47998046875 249.99499893188477,149.95999145507812 259.43498611450195,188.50997924804688 288.0349922180176,305.30999755859375 288.9650459289551,309.1099853515625 291.2249641418457,318.3699951171875 289.30498123168945,321.30999755859375 259.43498611450195,366.9899597167969"></polygon>
    </g>
  </g>
</svg></svg></g></g></svg></g></svg>